<svg width="19" height="19" viewBox="0 0 19 19" fill="none" xmlns="http://www.w3.org/2000/svg">
<path d="M11.6111 6.33333C11.312 6.33333 11.0615 6.232 10.8596 6.02933C10.6576 5.82667 10.5563 5.57615 10.5556 5.27778V1.05556C10.5556 0.756481 10.6569 0.505963 10.8596 0.304C11.0622 0.102037 11.3127 0.000703704 11.6111 0H17.9444C18.2435 0 18.4944 0.101333 18.6971 0.304C18.8997 0.506667 19.0007 0.757185 19 1.05556V5.27778C19 5.57685 18.8987 5.82772 18.696 6.03039C18.4933 6.23305 18.2428 6.33404 17.9444 6.33333H11.6111ZM1.05556 10.5556C0.756481 10.5556 0.505963 10.4542 0.304 10.2516C0.102037 10.0489 0.000703704 9.79837 0 9.5V1.05556C0 0.756481 0.101333 0.505963 0.304 0.304C0.506667 0.102037 0.757185 0.000703704 1.05556 0H7.38889C7.68796 0 7.93883 0.101333 8.1415 0.304C8.34416 0.506667 8.44515 0.757185 8.44444 1.05556V9.5C8.44444 9.79907 8.34311 10.0499 8.14044 10.2526C7.93778 10.4553 7.68726 10.5563 7.38889 10.5556H1.05556ZM11.6111 19C11.312 19 11.0615 18.8987 10.8596 18.696C10.6576 18.4933 10.5563 18.2428 10.5556 17.9444V9.5C10.5556 9.20092 10.6569 8.95041 10.8596 8.74844C11.0622 8.54648 11.3127 8.44515 11.6111 8.44444H17.9444C18.2435 8.44444 18.4944 8.54578 18.6971 8.74844C18.8997 8.95111 19.0007 9.20163 19 9.5V17.9444C19 18.2435 18.8987 18.4944 18.696 18.6971C18.4933 18.8997 18.2428 19.0007 17.9444 19H11.6111ZM1.05556 19C0.756481 19 0.505963 18.8987 0.304 18.696C0.102037 18.4933 0.000703704 18.2428 0 17.9444V13.7222C0 13.4231 0.101333 13.1726 0.304 12.9707C0.506667 12.7687 0.757185 12.6674 1.05556 12.6667H7.38889C7.68796 12.6667 7.93883 12.768 8.1415 12.9707C8.34416 13.1733 8.44515 13.4238 8.44444 13.7222V17.9444C8.44444 18.2435 8.34311 18.4944 8.14044 18.6971C7.93778 18.8997 7.68726 19.0007 7.38889 19H1.05556Z" fill="grey"/>
</svg>
